<svg xmlns="http://www.w3.org/2000/svg" xmlns:xlink="http://www.w3.org/1999/xlink" width="500" zoomAndPan="magnify" viewBox="0 0 375 374.999991" height="500" preserveAspectRatio="xMidYMid meet" version="1.0"><defs><g/><clipPath id="da8b1730e2"><path d="M 50.082031 50.082031 L 324.917969 50.082031 L 324.917969 324.917969 L 50.082031 324.917969 Z M 50.082031 50.082031 " clip-rule="nonzero"/></clipPath><clipPath id="37c668a759"><path d="M 187.5 50.082031 C 111.605469 50.082031 50.082031 111.605469 50.082031 187.5 C 50.082031 263.394531 111.605469 324.917969 187.5 324.917969 C 263.394531 324.917969 324.917969 263.394531 324.917969 187.5 C 324.917969 111.605469 263.394531 50.082031 187.5 50.082031 Z M 187.5 50.082031 " clip-rule="nonzero"/></clipPath><clipPath id="2de7963cd0"><path d="M 64.464844 184.980469 L 71.816406 184.980469 L 71.816406 192.332031 L 64.464844 192.332031 Z M 64.464844 184.980469 " clip-rule="nonzero"/></clipPath><clipPath id="fb6512cb77"><path d="M 68.140625 184.980469 C 66.109375 184.980469 64.464844 186.625 64.464844 188.65625 C 64.464844 190.6875 66.109375 192.332031 68.140625 192.332031 C 70.167969 192.332031 71.816406 190.6875 71.816406 188.65625 C 71.816406 186.625 70.167969 184.980469 68.140625 184.980469 Z M 68.140625 184.980469 " clip-rule="nonzero"/></clipPath><clipPath id="a0757afe97"><path d="M 305.066406 184.980469 L 312.414062 184.980469 L 312.414062 192.332031 L 305.066406 192.332031 Z M 305.066406 184.980469 " clip-rule="nonzero"/></clipPath><clipPath id="d3ef80706d"><path d="M 308.738281 184.980469 C 306.710938 184.980469 305.066406 186.625 305.066406 188.65625 C 305.066406 190.6875 306.710938 192.332031 308.738281 192.332031 C 310.769531 192.332031 312.414062 190.6875 312.414062 188.65625 C 312.414062 186.625 310.769531 184.980469 308.738281 184.980469 Z M 308.738281 184.980469 " clip-rule="nonzero"/></clipPath></defs><g clip-path="url(#da8b1730e2)"><g clip-path="url(#37c668a759)"><path fill="#100f0d" d="M 50.082031 50.082031 L 324.917969 50.082031 L 324.917969 324.917969 L 50.082031 324.917969 Z M 50.082031 50.082031 " fill-opacity="1" fill-rule="nonzero"/></g></g><path stroke-linecap="butt" transform="matrix(0.75, 0, 0, 0.75, 127.778463, 85.498163)" fill="none" stroke-linejoin="miter" d="M 4.420383 58.643078 L 20.071425 59.835786 L 20.071425 218.908713 L 4.420383 220.101422 L 4.420383 225.002464 L 62.123511 225.002464 L 62.123511 220.101422 L 46.472469 218.908713 L 46.472469 59.835786 L 62.123511 58.643078 L 62.123511 53.742036 L 4.420383 53.742036 Z M 4.420383 58.643078 " stroke="#100f0d" stroke-width="18.350849" stroke-opacity="1" stroke-miterlimit="4"/><g fill="#f1f1f1" fill-opacity="1"><g transform="translate(127.778463, 254.248152)"><g><path d="M 3.304688 -124.78125 L 15.046875 -123.863281 L 15.046875 -4.585938 L 3.304688 -3.671875 L 3.304688 0 L 46.609375 0 L 46.609375 -3.671875 L 34.867188 -4.585938 L 34.867188 -123.863281 L 46.609375 -124.78125 L 46.609375 -128.453125 L 3.304688 -128.453125 Z M 3.304688 -124.78125 "/></g></g></g><g fill="#f1f1f1" fill-opacity="1"><g transform="translate(140.979823, 254.248152)"><g><path d="M 58.722656 -128.453125 L 54.683594 -128.453125 L 15.230469 -4.21875 L 3.304688 -3.671875 L 3.304688 0 L 30.828125 0 L 30.828125 -3.671875 L 19.269531 -4.21875 L 33.214844 -48.445312 L 80.558594 -48.445312 L 94.320312 -4.585938 L 83.308594 -3.671875 L 83.308594 0 L 128.085938 0 L 128.085938 -3.671875 L 115.605469 -4.769531 L 76.335938 -128.453125 Z M 57.253906 -123.679688 L 57.621094 -121.84375 L 79.457031 -52.113281 L 34.5 -52.113281 L 56.519531 -121.84375 Z M 57.253906 -123.679688 "/></g></g></g><g clip-path="url(#2de7963cd0)"><g clip-path="url(#fb6512cb77)"><path fill="#f1f1f1" d="M 64.464844 184.980469 L 71.816406 184.980469 L 71.816406 192.332031 L 64.464844 192.332031 Z M 64.464844 184.980469 " fill-opacity="1" fill-rule="nonzero"/></g></g><g clip-path="url(#a0757afe97)"><g clip-path="url(#d3ef80706d)"><path fill="#f1f1f1" d="M 305.066406 184.980469 L 312.414062 184.980469 L 312.414062 192.332031 L 305.066406 192.332031 Z M 305.066406 184.980469 " fill-opacity="1" fill-rule="nonzero"/></g></g><g fill="#f1f1f1" fill-opacity="1"><g transform="translate(118.180288, 98.26581)"><g><path d="M -5.734375 -10 L -3.625 -11.578125 L 3.203125 -2.390625 L 1.09375 -0.8125 Z M -5.734375 -10 "/></g></g></g><g fill="#f1f1f1" fill-opacity="1"><g transform="translate(128.182492, 91.199837)"><g><path d="M -1.265625 -9.921875 L -4.46875 -8.140625 L -5.53125 -10.015625 L 3.1875 -14.875 L 4.25 -13 L 1.046875 -11.21875 L 5.5625 -3.109375 L 3.25 -1.8125 Z M -1.265625 -9.921875 "/></g></g></g><g fill="#f1f1f1" fill-opacity="1"><g transform="translate(143.153263, 83.417479)"><g><path d="M 4.859375 -1.59375 C 4.023438 -1.28125 3.164062 -1.09375 2.28125 -1.03125 C 1.394531 -0.96875 0.644531 -1.023438 0.03125 -1.203125 L 0.1875 -3.390625 C 0.769531 -3.234375 1.414062 -3.164062 2.125 -3.1875 C 2.832031 -3.21875 3.5 -3.351562 4.125 -3.59375 C 4.84375 -3.851562 5.328125 -4.148438 5.578125 -4.484375 C 5.835938 -4.828125 5.898438 -5.171875 5.765625 -5.515625 C 5.671875 -5.773438 5.492188 -5.953125 5.234375 -6.046875 C 4.972656 -6.140625 4.664062 -6.175781 4.3125 -6.15625 C 3.96875 -6.144531 3.503906 -6.101562 2.921875 -6.03125 C 2.035156 -5.914062 1.289062 -5.859375 0.6875 -5.859375 C 0.09375 -5.859375 -0.460938 -6.003906 -0.984375 -6.296875 C -1.515625 -6.585938 -1.914062 -7.085938 -2.1875 -7.796875 C -2.414062 -8.421875 -2.453125 -9.050781 -2.296875 -9.6875 C -2.148438 -10.320312 -1.796875 -10.910156 -1.234375 -11.453125 C -0.671875 -12.003906 0.101562 -12.46875 1.09375 -12.84375 C 1.769531 -13.09375 2.460938 -13.253906 3.171875 -13.328125 C 3.890625 -13.410156 4.554688 -13.390625 5.171875 -13.265625 L 5.09375 -11.09375 C 3.894531 -11.300781 2.800781 -11.21875 1.8125 -10.84375 C 1.113281 -10.582031 0.640625 -10.273438 0.390625 -9.921875 C 0.148438 -9.566406 0.0976562 -9.207031 0.234375 -8.84375 C 0.378906 -8.46875 0.675781 -8.265625 1.125 -8.234375 C 1.570312 -8.203125 2.21875 -8.25 3.0625 -8.375 C 3.945312 -8.476562 4.6875 -8.53125 5.28125 -8.53125 C 5.875 -8.53125 6.4375 -8.390625 6.96875 -8.109375 C 7.5 -7.835938 7.898438 -7.335938 8.171875 -6.609375 C 8.398438 -6.003906 8.4375 -5.382812 8.28125 -4.75 C 8.125 -4.125 7.757812 -3.535156 7.1875 -2.984375 C 6.625 -2.429688 5.847656 -1.96875 4.859375 -1.59375 Z M 4.859375 -1.59375 "/></g></g></g><g fill="#f1f1f1" fill-opacity="1"><g transform="translate(159.376675, 77.847052)"><g><path d="M 8.234375 -4.140625 L 3.03125 -3.109375 L 2.515625 -0.5 L -0.140625 0.03125 L 2.640625 -12.1875 L 5.203125 -12.6875 L 12.453125 -2.46875 L 9.71875 -1.921875 Z M 7.03125 -5.953125 L 4.40625 -9.890625 L 3.46875 -5.25 Z M 7.03125 -5.953125 "/></g></g></g><g fill="#f1f1f1" fill-opacity="1"><g transform="translate(178.287805, 74.650404)"><g><path d="M 1.125 -11.46875 L 6.3125 -11.578125 C 7.5625 -11.597656 8.664062 -11.378906 9.625 -10.921875 C 10.59375 -10.472656 11.347656 -9.820312 11.890625 -8.96875 C 12.429688 -8.125 12.710938 -7.128906 12.734375 -5.984375 C 12.765625 -4.835938 12.523438 -3.828125 12.015625 -2.953125 C 11.503906 -2.085938 10.773438 -1.40625 9.828125 -0.90625 C 8.890625 -0.414062 7.796875 -0.160156 6.546875 -0.140625 L 1.359375 -0.03125 Z M 6.375 -2.296875 C 7.519531 -2.328125 8.425781 -2.664062 9.09375 -3.3125 C 9.769531 -3.96875 10.09375 -4.835938 10.0625 -5.921875 C 10.039062 -7.015625 9.679688 -7.875 8.984375 -8.5 C 8.296875 -9.125 7.378906 -9.421875 6.234375 -9.390625 L 3.8125 -9.34375 L 3.953125 -2.25 Z M 6.375 -2.296875 "/></g></g></g><g fill="#f1f1f1" fill-opacity="1"><g transform="translate(198.435292, 74.848233)"><g><path d="M 6.328125 1.203125 C 4.710938 0.953125 3.523438 0.3125 2.765625 -0.71875 C 2.015625 -1.757812 1.769531 -3.109375 2.03125 -4.765625 L 3.03125 -11.09375 L 5.640625 -10.6875 L 4.65625 -4.453125 C 4.332031 -2.429688 5.007812 -1.289062 6.6875 -1.03125 C 7.507812 -0.894531 8.171875 -1.039062 8.671875 -1.46875 C 9.179688 -1.894531 9.519531 -2.628906 9.6875 -3.671875 L 10.671875 -9.90625 L 13.265625 -9.5 L 12.265625 -3.171875 C 12.003906 -1.515625 11.351562 -0.3125 10.3125 0.4375 C 9.269531 1.195312 7.941406 1.453125 6.328125 1.203125 Z M 6.328125 1.203125 "/></g></g></g><g fill="#f1f1f1" fill-opacity="1"><g transform="translate(217.641973, 78.451537)"><g><path d="M 6.03125 2.265625 C 4.476562 1.742188 3.421875 0.910156 2.859375 -0.234375 C 2.296875 -1.390625 2.285156 -2.765625 2.828125 -4.359375 L 4.90625 -10.421875 L 7.40625 -9.5625 L 5.359375 -3.578125 C 4.703125 -1.648438 5.175781 -0.410156 6.78125 0.140625 C 7.5625 0.410156 8.234375 0.378906 8.796875 0.046875 C 9.367188 -0.285156 9.828125 -0.945312 10.171875 -1.9375 L 12.21875 -7.921875 L 14.703125 -7.0625 L 12.625 -1 C 12.082031 0.59375 11.234375 1.664062 10.078125 2.21875 C 8.921875 2.78125 7.570312 2.796875 6.03125 2.265625 Z M 6.03125 2.265625 "/></g></g></g><g fill="#f1f1f1" fill-opacity="1"><g transform="translate(235.935955, 85.322541)"><g><path d="M 5.546875 3.28125 C 4.109375 2.488281 3.210938 1.476562 2.859375 0.25 C 2.503906 -0.976562 2.726562 -2.328125 3.53125 -3.796875 L 6.625 -9.40625 L 8.9375 -8.125 L 5.890625 -2.59375 C 4.910156 -0.8125 5.164062 0.484375 6.65625 1.296875 C 7.382812 1.703125 8.054688 1.789062 8.671875 1.5625 C 9.296875 1.34375 9.859375 0.773438 10.359375 -0.140625 L 13.40625 -5.671875 L 15.703125 -4.40625 L 12.609375 1.203125 C 11.804688 2.671875 10.785156 3.582031 9.546875 3.9375 C 8.304688 4.289062 6.972656 4.070312 5.546875 3.28125 Z M 5.546875 3.28125 "/></g></g></g><g fill="#f1f1f1" fill-opacity="1"><g transform="translate(252.814594, 95.488981)"><g/></g></g><g fill="#f1f1f1" fill-opacity="1"><g transform="translate(89.277468, 262.568948)"><g><path d="M 7.6875 8.90625 L 12.875 4.40625 L 6.390625 5.5625 L 5.609375 4.65625 L 7.59375 -1.484375 L 2.515625 2.90625 L 0.890625 1.03125 L 9.546875 -6.453125 L 10.96875 -4.796875 L 8.40625 3.09375 L 16.53125 1.625 L 17.953125 3.265625 L 9.3125 10.78125 Z M 7.6875 8.90625 "/></g></g></g><g fill="#f1f1f1" fill-opacity="1"><g transform="translate(105.700138, 279.993468)"><g><path d="M 8.4375 -7.84375 L 10.453125 -6.125 L 3.046875 2.59375 L 1.03125 0.875 Z M 8.4375 -7.84375 "/></g></g></g><g fill="#f1f1f1" fill-opacity="1"><g transform="translate(116.303163, 288.513659)"><g><path d="M 4.1875 2.9375 C 3.425781 2.457031 2.757812 1.878906 2.1875 1.203125 C 1.613281 0.535156 1.210938 -0.09375 0.984375 -0.6875 L 2.828125 -1.890625 C 3.046875 -1.316406 3.378906 -0.753906 3.828125 -0.203125 C 4.285156 0.347656 4.796875 0.804688 5.359375 1.171875 C 5.992188 1.578125 6.519531 1.785156 6.9375 1.796875 C 7.363281 1.804688 7.679688 1.648438 7.890625 1.328125 C 8.035156 1.097656 8.066406 0.847656 7.984375 0.578125 C 7.898438 0.316406 7.742188 0.0507812 7.515625 -0.21875 C 7.296875 -0.488281 6.988281 -0.832031 6.59375 -1.25 C 5.96875 -1.894531 5.476562 -2.457031 5.125 -2.9375 C 4.769531 -3.414062 4.550781 -3.953125 4.46875 -4.546875 C 4.382812 -5.148438 4.546875 -5.769531 4.953125 -6.40625 C 5.316406 -6.96875 5.796875 -7.378906 6.390625 -7.640625 C 6.984375 -7.898438 7.671875 -7.960938 8.453125 -7.828125 C 9.234375 -7.703125 10.066406 -7.359375 10.953125 -6.796875 C 11.554688 -6.398438 12.101562 -5.9375 12.59375 -5.40625 C 13.082031 -4.875 13.460938 -4.332031 13.734375 -3.78125 L 11.9375 -2.546875 C 11.382812 -3.617188 10.660156 -4.445312 9.765625 -5.03125 C 9.140625 -5.425781 8.613281 -5.617188 8.1875 -5.609375 C 7.757812 -5.597656 7.441406 -5.425781 7.234375 -5.09375 C 7.015625 -4.757812 7.023438 -4.398438 7.265625 -4.015625 C 7.515625 -3.640625 7.941406 -3.148438 8.546875 -2.546875 C 9.160156 -1.890625 9.644531 -1.320312 10 -0.84375 C 10.351562 -0.363281 10.578125 0.164062 10.671875 0.75 C 10.765625 1.332031 10.601562 1.945312 10.1875 2.59375 C 9.832031 3.132812 9.351562 3.535156 8.75 3.796875 C 8.15625 4.054688 7.46875 4.117188 6.6875 3.984375 C 5.90625 3.859375 5.070312 3.507812 4.1875 2.9375 Z M 4.1875 2.9375 "/></g></g></g><g fill="#f1f1f1" fill-opacity="1"><g transform="translate(132.338612, 298.018417)"><g/></g></g><g fill="#f1f1f1" fill-opacity="1"><g transform="translate(144.119236, 303.322979)"><g><path d="M 14.734375 -7.359375 L 11.296875 3.546875 L 8.78125 2.765625 L 10.1875 -1.703125 L 5.21875 -3.265625 L 3.8125 1.203125 L 1.296875 0.40625 L 4.734375 -10.5 L 7.25 -9.703125 L 5.890625 -5.421875 L 10.859375 -3.859375 L 12.21875 -8.140625 Z M 14.734375 -7.359375 "/></g></g></g><g fill="#f1f1f1" fill-opacity="1"><g transform="translate(165.009987, 309.101972)"><g><path d="M 6.359375 1.03125 C 4.734375 0.820312 3.53125 0.207031 2.75 -0.8125 C 1.96875 -1.832031 1.6875 -3.171875 1.90625 -4.828125 L 2.734375 -11.1875 L 5.359375 -10.84375 L 4.53125 -4.578125 C 4.269531 -2.554688 4.984375 -1.4375 6.671875 -1.21875 C 7.492188 -1.101562 8.148438 -1.265625 8.640625 -1.703125 C 9.128906 -2.140625 9.441406 -2.878906 9.578125 -3.921875 L 10.40625 -10.1875 L 13.015625 -9.84375 L 12.1875 -3.484375 C 11.96875 -1.828125 11.34375 -0.609375 10.3125 0.171875 C 9.289062 0.953125 7.972656 1.238281 6.359375 1.03125 Z M 6.359375 1.03125 "/></g></g></g><g fill="#f1f1f1" fill-opacity="1"><g transform="translate(186.211133, 311.081295)"><g><path d="M 10.140625 -2.5 L 10.21875 -0.375 L 1.359375 -0.046875 L 0.953125 -11.484375 L 9.59375 -11.796875 L 9.65625 -9.671875 L 3.640625 -9.453125 L 3.734375 -6.96875 L 9.046875 -7.171875 L 9.125 -5.109375 L 3.8125 -4.90625 L 3.90625 -2.265625 Z M 10.140625 -2.5 "/></g></g></g><g fill="#f1f1f1" fill-opacity="1"><g transform="translate(205.537135, 309.747294)"><g><path d="M 9.84375 -13.65625 L 7.265625 -1.46875 L 4.6875 -0.9375 L -2.40625 -11.1875 L 0.40625 -11.75 L 5.421875 -4.421875 L 7.265625 -13.140625 Z M 9.84375 -13.65625 "/></g></g></g><g fill="#f1f1f1" fill-opacity="1"><g transform="translate(225.611767, 304.985175)"><g><path d="M 7.40625 -5.484375 L 2.453125 -3.5625 L 2.390625 -0.921875 L -0.125 0.046875 L 0.5 -12.453125 L 2.9375 -13.390625 L 11.84375 -4.5625 L 9.234375 -3.5625 Z M 5.90625 -7.078125 L 2.640625 -10.5 L 2.515625 -5.765625 Z M 5.90625 -7.078125 "/></g></g></g><g fill="#f1f1f1" fill-opacity="1"><g transform="translate(244.932598, 296.781077)"><g><path d="M -4.75 -10.5 L -0.296875 -13.1875 C 0.765625 -13.832031 1.828125 -14.195312 2.890625 -14.28125 C 3.953125 -14.363281 4.929688 -14.171875 5.828125 -13.703125 C 6.722656 -13.234375 7.46875 -12.507812 8.0625 -11.53125 C 8.65625 -10.550781 8.945312 -9.554688 8.9375 -8.546875 C 8.925781 -7.546875 8.632812 -6.597656 8.0625 -5.703125 C 7.488281 -4.804688 6.671875 -4.035156 5.609375 -3.390625 L 1.15625 -0.703125 Z M 4.375 -5.171875 C 5.351562 -5.765625 5.96875 -6.507812 6.21875 -7.40625 C 6.476562 -8.3125 6.328125 -9.226562 5.765625 -10.15625 C 5.203125 -11.09375 4.460938 -11.65625 3.546875 -11.84375 C 2.628906 -12.039062 1.679688 -11.84375 0.703125 -11.25 L -1.375 -10 L 2.296875 -3.921875 Z M 4.375 -5.171875 "/></g></g></g><g fill="#f1f1f1" fill-opacity="1"><g transform="translate(263.318972, 284.761318)"><g><path d="M 5.078125 -7.6875 L 1.078125 -4.203125 L 1.921875 -1.6875 L -0.109375 0.09375 L -3.796875 -11.875 L -1.84375 -13.578125 L 9.546875 -8.34375 L 7.453125 -6.515625 Z M 3.140625 -8.671875 L -1.109375 -10.765625 L 0.390625 -6.265625 Z M 3.140625 -8.671875 "/></g></g></g><g fill="#f1f1f1" fill-opacity="1"><g transform="translate(278.553881, 270.436063)"><g><path d="M 3.40625 -3.8125 C 2.84375 -3.125 2.191406 -2.53125 1.453125 -2.03125 C 0.722656 -1.53125 0.046875 -1.207031 -0.578125 -1.0625 L -1.546875 -3.03125 C -0.953125 -3.175781 -0.359375 -3.4375 0.234375 -3.8125 C 0.835938 -4.195312 1.351562 -4.648438 1.78125 -5.171875 C 2.257812 -5.753906 2.523438 -6.253906 2.578125 -6.671875 C 2.640625 -7.097656 2.523438 -7.429688 2.234375 -7.671875 C 2.023438 -7.835938 1.78125 -7.898438 1.5 -7.859375 C 1.226562 -7.816406 0.945312 -7.695312 0.65625 -7.5 C 0.375 -7.300781 0 -7.035156 -0.46875 -6.703125 C -1.1875 -6.148438 -1.800781 -5.722656 -2.3125 -5.421875 C -2.832031 -5.128906 -3.394531 -4.976562 -4 -4.96875 C -4.601562 -4.957031 -5.203125 -5.191406 -5.796875 -5.671875 C -6.304688 -6.097656 -6.648438 -6.617188 -6.828125 -7.234375 C -7.015625 -7.859375 -7 -8.550781 -6.78125 -9.3125 C -6.5625 -10.070312 -6.117188 -10.859375 -5.453125 -11.671875 C -4.992188 -12.234375 -4.472656 -12.722656 -3.890625 -13.140625 C -3.316406 -13.566406 -2.734375 -13.878906 -2.140625 -14.078125 L -1.125 -12.15625 C -2.25 -11.726562 -3.148438 -11.109375 -3.828125 -10.296875 C -4.304688 -9.722656 -4.566406 -9.222656 -4.609375 -8.796875 C -4.648438 -8.367188 -4.519531 -8.023438 -4.21875 -7.765625 C -3.90625 -7.515625 -3.546875 -7.488281 -3.140625 -7.6875 C -2.742188 -7.882812 -2.207031 -8.25 -1.53125 -8.78125 C -0.800781 -9.320312 -0.179688 -9.738281 0.328125 -10.03125 C 0.835938 -10.332031 1.390625 -10.492188 1.984375 -10.515625 C 2.578125 -10.535156 3.171875 -10.300781 3.765625 -9.8125 C 4.265625 -9.40625 4.609375 -8.890625 4.796875 -8.265625 C 4.984375 -7.640625 4.96875 -6.941406 4.75 -6.171875 C 4.53125 -5.410156 4.082031 -4.625 3.40625 -3.8125 Z M 3.40625 -3.8125 "/></g></g></g></svg>